PathFileType	4	(X/Y/Z)	/Users/itak/Documents/Research/Walk-IL/dataset/trc/00402_00012.trc
DataRate	CameraRate	NumFrames	NumMarkers	Units	OrigDataRate	OrigDataStartFrame	OrigNumFrames
100.000000	100.000000	4	53	mm	100.000000	500	667
Frame#	Time	RPSI			LPSI			L3			STRN			T10			C7			CLAV			RBAK			LBAK			LSHO			LUPA			LAEL			LAOL			LWTS			LWPS			LFRA			LIFD			LHPS			LHTS			RSHO			RUPA			RAEL			RAOL			RWTS			RWPS			RFRA			RIFD			RHTS			RHPS			RBHD			LFHD			RFHD			LBHD			LHIP			RHIP			RASI			LASI			LKNE			LTHI			LANK			LTIP			LTOE			LMT1			LMT5			LHEE			RKNE			RTHI			RANK			RTIP			RTOE			RMT1			RMT5			RHEE			
		X1	Y1	Z1	X2	Y2	Z2	X3	Y3	Z3	X4	Y4	Z4	X5	Y5	Z5	X6	Y6	Z6	X7	Y7	Z7	X8	Y8	Z8	X9	Y9	Z9	X10	Y10	Z10	X11	Y11	Z11	X12	Y12	Z12	X13	Y13	Z13	X14	Y14	Z14	X15	Y15	Z15	X16	Y16	Z16	X17	Y17	Z17	X18	Y18	Z18	X19	Y19	Z19	X20	Y20	Z20	X21	Y21	Z21	X22	Y22	Z22	X23	Y23	Z23	X24	Y24	Z24	X25	Y25	Z25	X26	Y26	Z26	X27	Y27	Z27	X28	Y28	Z28	X29	Y29	Z29	X30	Y30	Z30	X31	Y31	Z31	X32	Y32	Z32	X33	Y33	Z33	X34	Y34	Z34	X35	Y35	Z35	X36	Y36	Z36	X37	Y37	Z37	X38	Y38	Z38	X39	Y39	Z39	X40	Y40	Z40	X41	Y41	Z41	X42	Y42	Z42	X43	Y43	Z43	X44	Y44	Z44	X45	Y45	Z45	X46	Y46	Z46	X47	Y47	Z47	X48	Y48	Z48	X49	Y49	Z49	X50	Y50	Z50	X51	Y51	Z51	X52	Y52	Z52	X53	Y53	Z53	

501	5	-681.4293212890625	938.4591064453125	-293.2950134277344	-554.9368896484375	931.6127319335938	-258.9123840332031	-612.3353271484375	1014.906799316406	-279.4729614257812	-689.3843383789062	1179.65771484375	-70.80724334716797	-587.8642578125	1113.806640625	-292.01904296875	-573.7229614257812	1363.8876953125	-257.1537475585938	-657.3541870117188	1294.121215820312	-123.294319152832	-616.4808349609375	1217.93408203125	-324.0648498535156	-479.3333435058594	1322.870971679688	-222.1306762695312	-474.0645751953125	1341.679809570312	-122.7797393798828	-406.9450988769531	1220.89697265625	-113.4078521728516	-399.6194763183594	1025.933227539062	-81.59587097167969	-431.5029296875	1000.162658691406	-157.5955352783203	-524.8878784179688	881.5270385742188	42.96213912963867	-450.4149780273438	847.9146118164062	43.81267166137695	-418.1812744140625	940.9841918945312	-33.80597686767578	-561.669677734375	730.069091796875	133.2406921386719	-483.2018737792969	781.9049072265625	89.85978698730469	-536.2662353515625	810.0638427734375	110.6606597900391	-734.7887573242188	1351.028564453125	-290.5715637207031	-770.1859741210938	1290.3681640625	-337.4124450683594	-776.6214599609375	1032.9775390625	-391.0011596679688	-703.9149169921875	1022.561950683594	-331.1752014160156	-840.0977783203125	800.8555908203125	-323.9959716796875	-845.7092895507812	803.0797119140625	-398.2550354003906	-803.01513671875	968.5750122070312	-398.1409301757812	-830.2728881835938	630.5867309570312	-359.5592956542969	-858.945556640625	696.93896484375	-346.9481201171875	-842.8359985351562	716.0322265625	-411.6757507324219	-675.0712890625	1559.6572265625	-247.4894561767578	-585.2947387695312	1554.685668945312	-71.02616119384766	-695.9721069335938	1568.78515625	-115.4935684204102	-524.2276000976562	1538.693237304688	-205.6554870605469	-469.0544128417969	921.28125	-144.2280731201172	-813.5005493164062	924.4385375976562	-242.1212768554688	-793.7291259765625	945.3897094726562	-101.7919540405273	-535.5936279296875	924.0000610351562	-40.17018890380859	-528.1220092773438	433.0614013671875	-162.2125244140625	-508.3759460449219	574.7015380859375	-142.5248413085938	-465.2330932617188	70.36031341552734	-436.0181274414062	-484.0111999511719	241.1059875488281	-298.9726867675781	-648.8125610351562	37.86101913452148	-319.0629577636719	-614.9884643554688	57.0073356628418	-392.8155212402344	-532.4940185546875	42.78903579711914	-332.8817443847656	-483.511474609375	93.83563232421875	-499.0351257324219	-872.2118530273438	482.9274597167969	-27.05831909179688	-858.349853515625	727.6151733398438	-108.9714202880859	-910.9252319335938	57.00415802001953	42.59392166137695	-881.610107421875	364.8348388671875	21.23054504394531	-873.0089111328125	55.08644866943359	227.7306976318359	-831.9274291992188	53.43440246582031	158.5512084960938	-928.280517578125	49.42777252197266	125.3409805297852	-848.9837646484375	38.3791389465332	-19.75271606445312	
502	5.01	-688.3114013671875	939.9522094726562	-285.1096496582031	-561.97509765625	932.1928100585938	-251.2088165283203	-618.7350463867188	1016.215393066406	-271.6885070800781	-693.67529296875	1181.263916015625	-62.83214569091797	-594.4993286132812	1114.640625	-284.9810485839844	-579.709228515625	1364.683227539062	-251.076171875	-662.17041015625	1295.548706054688	-116.0527038574219	-623.3259887695312	1218.534057617188	-316.9536743164062	-485.1325378417969	1323.693115234375	-216.7471771240234	-478.8532409667969	1342.8466796875	-117.623405456543	-411.9501037597656	1221.959594726562	-108.5151138305664	-404.9190673828125	1026.80126953125	-76.30716705322266	-438.0308837890625	1001.497436523438	-151.9299621582031	-525.7301635742188	874.75830078125	45.81553649902344	-450.82666015625	842.559814453125	43.50350570678711	-421.7158508300781	939.1956787109375	-30.39618873596191	-557.1129150390625	719.5582885742188	131.2423706054688	-481.1974487304688	774.4121704101562	87.60543060302734	-533.99951171875	800.7283325195312	110.8369293212891	-741.3143310546875	1352.117919921875	-282.6372985839844	-777.3515625	1291.118530273438	-328.9068298339844	-785.5811767578125	1033.449951171875	-380.8330383300781	-712.0166015625	1023.103454589844	-321.8323669433594	-849.4262084960938	801.9979858398438	-312.0329895019531	-855.5838623046875	803.9691772460938	-386.23291015625	-812.2684326171875	969.1697387695312	-387.349365234375	-841.1962280273438	631.552978515625	-347.1924743652344	-869.1412353515625	698.1271362304688	-334.4590148925781	-853.58056640625	716.910400390625	-399.4335327148438	-680.958740234375	1560.77490234375	-240.6488952636719	-589.111572265625	1555.937866210938	-65.24940490722656	-700.2421264648438	1570.125244140625	-108.4134292602539	-529.62158203125	1539.684692382812	-200.5649719238281	-475.2591552734375	921.3638305664062	-137.2952117919922	-820.202880859375	926.9276123046875	-232.2828521728516	-799.212158203125	947.6053466796875	-92.21213531494141	-540.59912109375	924.2528076171875	-33.14979553222656	-532.126953125	433.6062316894531	-153.8088073730469	-513.4656982421875	575.0823364257812	-134.8219451904297	-466.0684509277344	75.22568511962891	-433.4054260253906	-486.2703857421875	244.5044097900391	-293.7515869140625	-648.632568359375	37.95633697509766	-318.2991027832031	-615.3019409179688	58.9041633605957	-390.8251037597656	-532.8153076171875	42.84776306152344	-331.5741882324219	-484.9478759765625	100.8096542358398	-495.453857421875	-875.8129272460938	484.7345275878906	-16.01917266845703	-863.6280517578125	730.09814453125	-97.78469085693359	-911.718994140625	56.64291000366211	43.77785491943359	-884.2560424804688	365.2979125976562	30.01113891601562	-873.3028564453125	50.52439498901367	229.3460083007812	-832.3856201171875	51.18270492553711	159.6759033203125	-928.871826171875	47.59999847412109	126.282958984375	-849.9683837890625	39.46728134155273	-19.17523193359375	
503	5.02	-695.0457763671875	941.6934814453125	-276.7781066894531	-568.8994750976562	933.0086669921875	-243.4138031005859	-624.9219970703125	1017.805053710938	-263.8831787109375	-697.9176635742188	1183.133911132812	-54.80617141723633	-600.9736938476562	1115.651245117188	-277.8796997070312	-585.6102294921875	1365.652954101562	-244.9596710205078	-666.9066772460938	1297.239624023438	-108.784553527832	-630.0623168945312	1219.324340820312	-309.7929382324219	-490.834716796875	1324.71435546875	-211.3129730224609	-483.6144409179688	1344.235595703125	-112.4217224121094	-416.901611328125	1223.280029296875	-103.4621124267578	-410.3110961914062	1027.979614257812	-70.92417907714844	-444.5311889648438	1003.144653320312	-146.2269592285156	-526.3331909179688	868.3429565429688	48.30811309814453	-451.0364990234375	837.5836181640625	42.62582778930664	-425.1402893066406	937.7490844726562	-27.20350456237793	-551.9934692382812	709.4100341796875	128.2237091064453	-479.0774536132812	767.3367919921875	84.48862457275391	-531.415771484375	791.6624755859375	110.2430953979492	-747.700439453125	1353.406005859375	-274.6514587402344	-784.4400634765625	1292.169067382812	-320.3248596191406	-794.5535278320312	1034.243286132812	-370.5018920898438	-720.147216796875	1023.983764648438	-312.4684448242188	-858.82177734375	803.49755859375	-299.701416015625	-865.6001586914062	805.1804809570312	-373.8157043457031	-821.5718994140625	970.0794067382812	-376.3394165039062	-851.9745483398438	632.8482055664062	-334.3766479492188	-879.2708129882812	699.6187133789062	-321.5104370117188	-864.3516845703125	718.0934448242188	-386.7562561035156	-686.7755126953125	1562.043701171875	-233.7982940673828	-592.8380737304688	1557.394165039062	-59.51486206054688	-704.411865234375	1571.65673828125	-101.3417739868164	-534.9653930664062	1540.83984375	-195.5016326904297	-481.4452209472656	921.6505126953125	-130.2471160888672	-826.8291625976562	929.6436767578125	-222.4999389648438	-804.6734619140625	950.0914916992188	-82.63910675048828	-545.8087768554688	924.7332763671875	-25.86885833740234	-536.0372924804688	434.3313903808594	-144.906982421875	-518.4500732421875	575.6244506835938	-126.7619247436523	-467.065185546875	80.42498016357422	-430.3289184570312	-488.5665283203125	248.1865234375	-288.0591735839844	-648.391357421875	38.05970001220703	-317.5050659179688	-615.6607666015625	60.81466293334961	-388.5437316894531	-533.1724243164062	42.81842041015625	-330.1103210449219	-486.6625366210938	108.1705856323242	-491.1985778808594	-879.5656127929688	486.2715759277344	-5.84281587600708	-869.036376953125	732.6919555664062	-86.84053039550781	-912.432861328125	56.36684036254883	44.64813613891602	-887.05126953125	365.6243896484375	37.90642547607422	-873.7379150390625	47.22198486328125	230.4774017333984	-832.9246826171875	49.71786880493164	160.4623565673828	-929.5700073242188	46.3677864074707	126.8637161254883	-850.8511962890625	40.28547286987305	-18.71225357055664	
504	5.03	-701.6658325195312	943.6180419921875	-268.3347778320312	-575.7291870117188	933.996337890625	-235.6014099121094	-631.0068359375	1019.573547363281	-256.0578002929688	-702.1143188476562	1185.189086914062	-46.72628021240234	-607.3375854492188	1116.778930664062	-270.6940307617188	-591.4342041015625	1366.73681640625	-238.8062133789062	-671.5632934570312	1299.116943359375	-101.4837951660156	-636.7154541015625	1220.2529296875	-302.5736389160156	-496.4438171386719	1325.863647460938	-205.84619140625	-488.3338317871094	1345.772338867188	-107.1819763183594	-421.7954711914062	1224.774291992188	-98.26117706298828	-415.714599609375	1029.400024414062	-65.51343536376953	-450.9429931640625	1005.012268066406	-140.5305023193359	-526.70068359375	862.3527221679688	50.42453765869141	-451.0761108398438	833.07275390625	41.23405456542969	-428.4307556152344	936.6483154296875	-24.24438667297363	-546.4649047851562	699.7459106445312	124.1183776855469	-476.8808898925781	760.7859497070312	80.57195281982422	-528.6008911132812	782.96630859375	108.8651733398438	-753.9403686523438	1354.816528320312	-266.6240539550781	-791.4537963867188	1293.463012695312	-311.6612548828125	-803.5252685546875	1035.30419921875	-360.0448608398438	-728.3526611328125	1025.09765625	-303.1189270019531	-868.2660522460938	805.3172607421875	-287.0133361816406	-875.7576293945312	806.6599731445312	-361.0175476074219	-830.9129028320312	971.24267578125	-365.1506652832031	-862.6233520507812	634.429443359375	-321.0791625976562	-889.3560791015625	701.3814086914062	-308.0924682617188	-875.1505737304688	719.523681640625	-373.6292114257812	-692.5097045898438	1563.408935546875	-226.94775390625	-596.475341796875	1559.0126953125	-53.83207321166992	-708.4823608398438	1573.333251953125	-94.29544830322266	-540.251220703125	1542.109130859375	-190.4703826904297	-487.5852661132812	922.1190185546875	-123.1698379516602	-833.4097290039062	932.4649047851562	-212.7756958007812	-810.1044921875	952.7221069335938	-73.08205413818359	-551.139404296875	925.3855590820312	-18.45622253417969	-539.8639526367188	435.1980285644531	-135.4841613769531	-523.3289794921875	576.2744750976562	-118.3380813598633	-468.2780456542969	85.92902374267578	-426.7642822265625	-490.9380187988281	252.1076507568359	-281.8872680664062	-648.1136474609375	38.14734649658203	-316.7015991210938	-616.0921630859375	62.69000244140625	-385.9472351074219	-533.5816650390625	42.69258117675781	-328.5053100585938	-488.7233276367188	115.8668823242188	-486.2198791503906	-883.4047241210938	487.4365539550781	3.329566478729248	-874.5814208984375	735.2295532226562	-76.20572662353516	-912.9953002929688	56.15242385864258	45.29610443115234	-889.8925170898438	365.7483520507812	44.90929794311523	-874.1920166015625	44.94324493408203	231.2760467529297	-833.4359130859375	48.8402099609375	161.0056610107422	-930.266845703125	45.61169815063477	127.2073593139648	-851.57568359375	40.86833572387695	-18.34231948852539	
